<?xml version="1.0" encoding="UTF-8" standalone="no"?>
<!DOCTYPE svg PUBLIC "-//W3C//DTD SVG 1.1//EN"
 "http://www.w3.org/Graphics/SVG/1.1/DTD/svg11.dtd">
<!-- Generated by graphviz version 2.40.1 (20161225.0304)
 -->
<!-- Title: XmppStreamActor states Pages: 1 -->
<svg width="496pt" height="302pt"
 viewBox="0.00 0.00 496.47 302.00" xmlns="http://www.w3.org/2000/svg" xmlns:xlink="http://www.w3.org/1999/xlink">
<g id="graph0" class="graph" transform="scale(1 1) rotate(0) translate(4 298)">
<title>XmppStreamActor states</title>
<polygon fill="#ffffff" stroke="transparent" points="-4,4 -4,-298 492.4665,-298 492.4665,4 -4,4"/>
<!-- Initial -->
<g id="node1" class="node">
<title>Initial</title>
<ellipse fill="none" stroke="#000000" cx="327.0837" cy="-276" rx="31.4549" ry="18"/>
<text text-anchor="middle" x="327.0837" y="-271.8" font-family="Times,serif" font-size="14.00" fill="#000000">Initial</text>
</g>
<!-- Connecting -->
<g id="node2" class="node">
<title>Connecting</title>
<ellipse fill="none" stroke="#000000" cx="211.0837" cy="-190" rx="50.7569" ry="18"/>
<text text-anchor="middle" x="211.0837" y="-185.8" font-family="Times,serif" font-size="14.00" fill="#000000">Connecting</text>
</g>
<!-- Initial&#45;&gt;Connecting -->
<g id="edge1" class="edge">
<title>Initial&#45;&gt;Connecting</title>
<path fill="none" stroke="#000000" d="M307.6679,-261.6055C289.6415,-248.2412 262.5148,-228.1299 241.5948,-212.6203"/>
<polygon fill="#000000" stroke="#000000" points="243.4589,-209.6454 233.3413,-206.5014 239.29,-215.2686 243.4589,-209.6454"/>
<text text-anchor="middle" x="310.6613" y="-228.8" font-family="Times,serif" font-size="14.00" fill="#000000">Api.Connect</text>
</g>
<!-- Connected -->
<g id="node3" class="node">
<title>Connected</title>
<ellipse fill="none" stroke="#000000" cx="326.0837" cy="-104" rx="47.8496" ry="18"/>
<text text-anchor="middle" x="326.0837" y="-99.8" font-family="Times,serif" font-size="14.00" fill="#000000">Connected</text>
</g>
<!-- Initial&#45;&gt;Connected -->
<g id="edge2" class="edge">
<title>Initial&#45;&gt;Connected</title>
<path fill="none" stroke="#000000" d="M339.9172,-259.2182C343.7676,-253.4119 347.6183,-246.6795 350.0837,-240 365.5834,-198.0058 379.2139,-181.3559 362.0837,-140 360.236,-135.5393 357.5377,-131.3432 354.436,-127.5017"/>
<polygon fill="#000000" stroke="#000000" points="356.9999,-125.1191 347.6459,-120.1438 351.8556,-129.8664 356.9999,-125.1191"/>
<text text-anchor="middle" x="428.7751" y="-185.8" font-family="Times,serif" font-size="14.00" fill="#000000">Api.FromConnection</text>
</g>
<!-- Connecting&#45;&gt;Connected -->
<g id="edge3" class="edge">
<title>Connecting&#45;&gt;Connected</title>
<path fill="none" stroke="#000000" d="M232.985,-173.6216C250.89,-160.2318 276.3875,-141.1641 296.1729,-126.368"/>
<polygon fill="#000000" stroke="#000000" points="298.3517,-129.1092 304.2639,-120.3174 294.1594,-123.5034 298.3517,-129.1092"/>
<text text-anchor="middle" x="317.1623" y="-142.8" font-family="Times,serif" font-size="14.00" fill="#000000">Tcp.Connected</text>
</g>
<!-- Failed -->
<g id="node4" class="node">
<title>Failed</title>
<ellipse fill="none" stroke="#000000" cx="74.0837" cy="-104" rx="32.4237" ry="18"/>
<text text-anchor="middle" x="74.0837" y="-99.8" font-family="Times,serif" font-size="14.00" fill="#000000">Failed</text>
</g>
<!-- Connecting&#45;&gt;Failed -->
<g id="edge4" class="edge">
<title>Connecting&#45;&gt;Failed</title>
<path fill="none" stroke="#000000" d="M160.1338,-188.3833C105.5101,-185.4505 23.979,-177.2005 4.4714,-154 -8.8514,-138.1551 12.8662,-124.765 35.4731,-115.8412"/>
<polygon fill="#000000" stroke="#000000" points="36.9385,-119.0316 45.1167,-112.2961 34.5232,-112.4615 36.9385,-119.0316"/>
<text text-anchor="middle" x="63.8898" y="-142.8" font-family="Times,serif" font-size="14.00" fill="#000000">Tcp.CommandFailed</text>
</g>
<!-- Connecting&#45;&gt;Failed -->
<g id="edge5" class="edge">
<title>Connecting&#45;&gt;Failed</title>
<path fill="none" stroke="#000000" d="M183.0388,-174.9343C171.7311,-168.6784 158.6453,-161.2069 147.0593,-154 131.9757,-144.6175 115.6252,-133.5066 102.2316,-124.1443"/>
<polygon fill="#000000" stroke="#000000" points="104.0922,-121.1739 93.9002,-118.2802 100.0632,-126.8981 104.0922,-121.1739"/>
<text text-anchor="middle" x="202.0959" y="-142.8" font-family="Times,serif" font-size="14.00" fill="#000000">Api.ConnectCancel</text>
</g>
<!-- Disconnected -->
<g id="node5" class="node">
<title>Disconnected</title>
<ellipse fill="none" stroke="#000000" cx="326.0837" cy="-18" rx="58.4737" ry="18"/>
<text text-anchor="middle" x="326.0837" y="-13.8" font-family="Times,serif" font-size="14.00" fill="#000000">Disconnected</text>
</g>
<!-- Connected&#45;&gt;Disconnected -->
<g id="edge6" class="edge">
<title>Connected&#45;&gt;Disconnected</title>
<path fill="none" stroke="#000000" d="M326.0837,-85.7616C326.0837,-74.3597 326.0837,-59.4342 326.0837,-46.494"/>
<polygon fill="#000000" stroke="#000000" points="329.5838,-46.2121 326.0837,-36.2121 322.5838,-46.2121 329.5838,-46.2121"/>
<text text-anchor="middle" x="369.8234" y="-56.8" font-family="Times,serif" font-size="14.00" fill="#000000">Api.Disconnect</text>
</g>
</g>
</svg>
